<svg width="622" height="122" viewBox="0 0 622 122" fill="none" xmlns="http://www.w3.org/2000/svg">
<path d="M190.35 74H218.868C222.298 74 228.766 74.098 230.628 74.098V58.026C228.766 58.026 222.298 58.124 218.868 58.124H209.166V17.16C209.166 13.73 209.264 7.26199 209.264 5.4H190.252C190.252 7.26199 190.35 13.73 190.35 17.16V74ZM240.69 74H267.64C271.07 74 277.538 74.098 279.4 74.098V57.83C277.538 57.83 271.07 57.928 267.64 57.928H258.036V47.736H262.348C265.778 47.736 272.246 47.834 274.108 47.834V31.566C272.246 31.566 265.778 31.664 262.348 31.664H258.036V21.472H266.072C269.502 21.472 275.97 21.57 277.832 21.57V5.302C275.97 5.302 269.502 5.4 266.072 5.4H240.69V74ZM339.531 52.832C341.197 52.832 342.275 52.44 342.569 52.244L342.863 52.636C342.569 52.832 342.177 54.204 340.903 55.478C338.06 58.32 334.631 60.672 326.203 60.672C315.227 60.672 307.779 52.244 307.779 39.7C307.779 28.822 315.227 19.904 326.203 19.904C331.495 19.904 336.787 21.766 341.295 28.528L354.231 16.572C348.253 8.63399 338.551 3.44 326.203 3.44C304.643 3.44 288.963 19.708 288.963 39.7C288.963 59.692 303.663 75.96 326.203 75.96C348.743 75.96 361.091 60.476 361.091 43.032C361.091 41.562 360.993 38.622 360.895 37.544H338.845C335.415 37.544 328.947 37.446 327.085 37.446V52.93C328.947 52.93 335.317 52.832 338.747 52.832H339.531ZM373.334 74H400.284C403.714 74 410.182 74.098 412.044 74.098V57.83C410.182 57.83 403.714 57.928 400.284 57.928H390.68V47.736H394.992C398.422 47.736 404.89 47.834 406.752 47.834V31.566C404.89 31.566 398.422 31.664 394.992 31.664H390.68V21.472H398.716C402.146 21.472 408.614 21.57 410.476 21.57V5.302C408.614 5.302 402.146 5.4 398.716 5.4H373.334V74ZM424.057 3.63599V62.24C424.057 65.67 423.959 72.138 423.959 74H442.971C442.971 72.138 442.873 65.67 442.873 62.24V45.874C442.873 42.15 442.383 39.602 442.187 38.622L442.579 38.524C444.539 41.268 444.931 41.758 448.067 44.306L486.287 75.764H488.051V17.16C488.051 13.73 488.149 7.26199 488.149 5.4H469.137C469.137 7.26199 469.235 13.73 469.235 17.16V32.448C469.235 36.172 469.725 38.72 469.921 39.7L469.529 39.798C467.569 37.054 467.177 36.564 464.041 34.016L425.821 3.63599H424.057ZM502.725 5.4V74H527.911C550.255 74 563.485 58.418 563.485 39.7C563.485 20.59 549.961 5.4 530.067 5.4H502.725ZM521.541 20.884H527.421C537.515 20.884 544.669 29.018 544.669 39.7C544.669 50.088 537.221 58.32 527.813 58.32H521.541V20.884ZM616.695 14.514C612.971 10.202 605.523 3.44 594.351 3.44C582.395 3.44 572.693 12.75 572.693 23.432C572.693 34.114 581.807 40.288 589.451 45.286C595.331 49.108 600.329 52.048 600.329 56.36C600.329 59.3 597.781 61.652 594.057 61.652C588.667 61.652 584.453 57.83 581.905 52.93L567.695 61.26C572.693 69.688 581.611 75.96 593.861 75.96C608.169 75.96 618.361 67.434 618.361 54.792C618.361 43.228 609.933 38.034 601.113 31.958C596.507 28.822 590.333 25.98 590.333 21.276C590.333 19.316 592.195 17.552 594.743 17.552C599.349 17.552 602.877 20.884 605.719 24.706L616.695 14.514Z" fill="black"/>
<path d="M78 5.00001H102L128 74H105L89.75 24.5L74.5 74H53L78 5.00001Z" fill="url(#paint0_linear_4_3)"/>
<path d="M158 74L134 74L108 5L131 5L146.25 54.5L161.5 5.00001L183 5.00001L158 74Z" fill="#112B42"/>
<path d="M10.856 97.84C6.344 97.84 2.696 101.488 2.696 105.968C2.696 110.512 6.344 114.16 10.856 114.16C13.96 114.16 16.808 112.368 18.152 109.584L16.392 108.752C15.368 110.864 13.224 112.208 10.856 112.208C7.528 112.208 4.84 109.68 4.616 106.384H18.856C19.016 101.584 15.4 97.84 10.856 97.84ZM10.856 99.76C13.736 99.76 16.104 101.744 16.776 104.464H4.808C5.48 101.776 7.912 99.76 10.856 99.76ZM50.9738 114L44.5098 105.936L50.8778 98H48.5098L43.3578 104.464L38.1738 98H35.8058L42.1738 105.936L35.7098 114H38.0458L43.3578 107.408L48.6378 114H50.9738ZM76.6055 97.616C74.4615 97.616 72.5415 98.736 71.1015 100.336V97.872H69.1175V121.552H71.1015V111.248C72.4775 112.848 74.2695 113.968 76.6055 113.968C81.1495 113.968 84.7655 110.256 84.7655 105.776C84.7655 101.2 81.0855 97.616 76.6055 97.616ZM76.6055 111.984C74.3015 111.984 72.2215 110.736 71.1015 108.72V103.024C72.1255 100.88 74.2695 99.568 76.6055 99.568C80.0615 99.568 82.8135 102.352 82.8135 105.776C82.8135 109.232 80.0615 111.984 76.6055 111.984ZM105.536 91.6H103.584V114H105.536V91.6ZM132.534 114.224C137.11 114.224 140.822 110.512 140.758 106C140.79 101.456 137.11 97.776 132.534 97.776C128.022 97.776 124.342 101.456 124.342 106C124.342 110.544 127.99 114.224 132.534 114.224ZM132.534 112.24C129.11 112.24 126.294 109.424 126.294 106C126.294 102.576 129.11 99.728 132.566 99.728C136.022 99.728 138.838 102.544 138.838 106C138.806 109.424 135.99 112.24 132.534 112.24ZM161.532 101.072V98.064H159.548V114H161.532V104.784C161.532 103.568 161.852 102.288 162.716 101.296C164.092 99.664 166.3 99.408 168.092 100.464L169.116 98.736C166.044 96.912 163.068 98.288 161.532 101.072ZM191.769 97.744C189.369 97.744 187.225 99.088 186.233 101.168L188.185 101.808C188.857 100.464 190.233 99.696 191.769 99.696C194.009 99.696 195.865 101.168 195.865 103.792V105.456C194.713 104.848 193.049 104.592 191.673 104.592C187.961 104.592 185.113 106.128 185.113 109.296V109.36C185.113 112.24 187.513 114.064 190.777 114.064C192.857 114.064 194.649 113.072 195.865 111.632V114H197.817V103.792C197.817 99.696 195.097 97.744 191.769 97.744ZM190.777 112.24C188.697 112.24 187.065 111.216 187.065 109.36V109.296C187.065 107.312 189.049 106.192 191.673 106.192C193.177 106.192 194.489 106.416 195.833 106.896V108.176C195.833 110.448 193.529 112.24 190.777 112.24ZM225.109 111.696C223.381 113.136 220.629 111.632 220.629 109.36V100.048H225.461V98.096H220.629V93.584H218.677V98.096H215.637V100.048H218.677V109.36C218.677 113.328 223.253 115.76 226.549 113.104L225.109 111.696ZM246.134 93.808C246.87 93.808 247.478 93.2 247.478 92.464C247.478 91.728 246.87 91.12 246.134 91.12C245.398 91.12 244.79 91.728 244.79 92.464C244.79 93.2 245.398 93.808 246.134 93.808ZM245.174 114H247.126V98H245.174V114ZM274.491 114.224C279.067 114.224 282.779 110.512 282.715 106C282.747 101.456 279.067 97.776 274.491 97.776C269.979 97.776 266.299 101.456 266.299 106C266.299 110.544 269.947 114.224 274.491 114.224ZM274.491 112.24C271.067 112.24 268.251 109.424 268.251 106C268.251 102.576 271.067 99.728 274.523 99.728C277.979 99.728 280.795 102.544 280.795 106C280.763 109.424 277.947 112.24 274.491 112.24ZM308.22 97.872C306.012 97.872 304.38 99.152 303.324 100.88V98.064H301.34V114H303.324V104.88C303.324 102.352 304.956 99.824 307.804 99.824C310.172 99.824 312.252 101.52 312.252 104.272V114H314.236V104.272C314.236 99.92 311.132 97.872 308.22 97.872ZM359.733 101.072V98.064H357.749V114H359.733V104.784C359.733 103.568 360.053 102.288 360.917 101.296C362.293 99.664 364.501 99.408 366.293 100.464L367.317 98.736C364.245 96.912 361.269 98.288 359.733 101.072ZM391.573 97.84C387.061 97.84 383.413 101.488 383.413 105.968C383.413 110.512 387.061 114.16 391.573 114.16C394.677 114.16 397.525 112.368 398.869 109.584L397.109 108.752C396.085 110.864 393.941 112.208 391.573 112.208C388.245 112.208 385.557 109.68 385.333 106.384H399.573C399.733 101.584 396.117 97.84 391.573 97.84ZM391.573 99.76C394.453 99.76 396.821 101.744 397.493 104.464H385.525C386.197 101.776 388.629 99.76 391.573 99.76ZM431.262 91.6V100.688C429.918 99.088 428.126 97.936 425.758 97.936C421.31 97.936 417.63 101.552 417.63 106.096C417.63 110.608 421.214 114.256 425.758 114.256C427.934 114.256 429.822 113.136 431.262 111.536V114H433.214V91.6H431.262ZM425.758 112.272C422.302 112.272 419.582 109.52 419.582 106.096C419.582 102.64 422.334 99.92 425.758 99.92C428.094 99.92 430.174 101.168 431.262 103.216V108.848C430.238 110.928 428.158 112.272 425.758 112.272ZM460.037 97.84C455.525 97.84 451.877 101.488 451.877 105.968C451.877 110.512 455.525 114.16 460.037 114.16C463.141 114.16 465.989 112.368 467.333 109.584L465.573 108.752C464.549 110.864 462.405 112.208 460.037 112.208C456.709 112.208 454.021 109.68 453.797 106.384H468.037C468.197 101.584 464.581 97.84 460.037 97.84ZM460.037 99.76C462.917 99.76 465.285 101.744 465.957 104.464H453.989C454.661 101.776 457.093 99.76 460.037 99.76ZM490.043 94.48C490.043 92.848 491.963 91.888 493.275 92.88L495.035 91.92C492.507 89.072 488.091 90.96 488.091 94.48V98.256H484.795V100.24H488.091V113.936H490.043V100.24H494.523V98.256H490.043V94.48ZM514.143 93.808C514.879 93.808 515.487 93.2 515.487 92.464C515.487 91.728 514.879 91.12 514.143 91.12C513.407 91.12 512.799 91.728 512.799 92.464C512.799 93.2 513.407 93.808 514.143 93.808ZM513.183 114H515.135V98H513.183V114ZM542.2 97.872C539.992 97.872 538.36 99.152 537.304 100.88V98.064H535.32V114H537.304V104.88C537.304 102.352 538.936 99.824 541.784 99.824C544.152 99.824 546.232 101.52 546.232 104.272V114H548.216V104.272C548.216 99.92 545.112 97.872 542.2 97.872ZM574.871 97.84C570.359 97.84 566.711 101.488 566.711 105.968C566.711 110.512 570.359 114.16 574.871 114.16C577.975 114.16 580.823 112.368 582.167 109.584L580.407 108.752C579.383 110.864 577.239 112.208 574.871 112.208C571.543 112.208 568.855 109.68 568.631 106.384H582.871C583.031 101.584 579.415 97.84 574.871 97.84ZM574.871 99.76C577.751 99.76 580.119 101.744 580.791 104.464H568.823C569.495 101.776 571.927 99.76 574.871 99.76ZM614.559 91.6V100.688C613.215 99.088 611.423 97.936 609.055 97.936C604.607 97.936 600.927 101.552 600.927 106.096C600.927 110.608 604.511 114.256 609.055 114.256C611.231 114.256 613.119 113.136 614.559 111.536V114H616.511V91.6H614.559ZM609.055 112.272C605.599 112.272 602.879 109.52 602.879 106.096C602.879 102.64 605.631 99.92 609.055 99.92C611.391 99.92 613.471 101.168 614.559 103.216V108.848C613.535 110.928 611.455 112.272 609.055 112.272Z" fill="black"/>
<path d="M25 5.00001H49L75 74H52L36.75 24.5L21.5 74H0L25 5.00001Z" fill="#386FBF"/>
<defs>
<linearGradient id="paint0_linear_4_3" x1="97.5" y1="40" x2="75" y2="74" gradientUnits="userSpaceOnUse">
<stop stop-color="#B4C7E5"/>
<stop offset="1" stop-color="#8F9BB5"/>
</linearGradient>
</defs>
</svg>
